<?xml version="1.0" ?><svg id="Layer_1" style="enable-background:new 0 0 512 512;" version="1.1" viewBox="0 0 512 512" xml:space="preserve" xmlns="http://www.w3.org/2000/svg" xmlns:xlink="http://www.w3.org/1999/xlink"><style type="text/css">
	.st0{fill:#D0D3D4;}
	.st1{fill:#A6A9AD;}
	.st2{fill:#808285;}
	.st3{fill:#57585B;}
</style><g><path class="st0" d="M345.9,380.2l134.4,67.2c0.2,0.1,0.5,0.2,0.6,0.3c0-0.2,0-0.4,0-0.7V160.7L345.9,380.2z"/><polygon class="st1" points="337.5,64.2 242.1,218.5 333.8,367.6 477.4,134.2  "/><polygon class="st2" points="186.7,300.6 311.1,362.8 186.7,160.7  "/><path class="st3" d="M31,374c0,2.1,2.1,5.4,3.9,6.4l134.1,67c0.2,0.1,0.5,0.2,0.6,0.3c0-0.2,0-0.4,0-0.7V136L31,66.6L31,374z"/></g></svg>